{"accessors" : [{"bufferView" : 0, "byteOffset" : 0, "componentType" : 5123, "count" : 8184, "type" : "SCALAR", "max" : [1605], "min" : [0]}, {"bufferView" : 1, "byteOffset" : 0, "componentType" : 5126, "count" : 1606, "type" : "VEC3", "max" : [16.166805267333984, 94.53599548339844, 36.918800354003906], "min" : [-16.16679573059082, 0.034807998687028885, -25.592618942260742]}, {"bufferView" : 1, "byteOffset" : 12, "componentType" : 5126, "count" : 1606, "type" : "VEC3", "max" : [0.9997267723083496, 0.9991047382354736, 0.9986990094184875], "min" : [-0.9997351765632629, -0.9999279379844666, -0.9997738599777222]}, {"bufferView" : 1, "byteOffset" : 24, "componentType" : 5126, "count" : 1606, "type" : "VEC2", "max" : [0.9914140105247498, -0.007176999934017658], "min" : [0.003963000141084194, -0.9970880150794983]}, {"bufferView" : 0, "byteOffset" : 16368, "componentType" : 5123, "count" : 540, "type" : "SCALAR", "max" : [119], "min" : [0]}, {"bufferView" : 2, "byteOffset" : 0, "componentType" : 5126, "count" : 120, "type" : "VEC3", "max" : [14.198628425598145, 75.49159240722656, 32.76308822631836], "min" : [-14.19862174987793, 58.09379196166992, 20.808996200561523]}, {"bufferView" : 2, "byteOffset" : 12, "componentType" : 5126, "count" : 120, "type" : "VEC3", "max" : [0.9209582209587097, 0.9686883687973022, 0.9108210206031799], "min" : [-0.9209582209587097, -0.98038250207901, -0.9779651165008545]}, {"bufferView" : 2, "byteOffset" : 24, "componentType" : 5126, "count" : 120, "type" : "VEC2", "max" : [0.33682000637054443, -0.7452049851417542], "min" : [0.16636799275875092, -0.840707004070282]}, {"bufferView" : 0, "byteOffset" : 17448, "componentType" : 5123, "count" : 696, "type" : "SCALAR", "max" : [179], "min" : [0]}, {"bufferView" : 3, "byteOffset" : 0, "componentType" : 5126, "count" : 180, "type" : "VEC3", "max" : [2.2203779220581055, 56.69536209106445, 32.11145782470703], "min" : [-2.232944965362549, 53.37382125854492, 11.968940734863281]}, {"bufferView" : 3, "byteOffset" : 12, "componentType" : 5126, "count" : 180, "type" : "VEC3", "max" : [1.0000044107437134, 0.9959969520568848, 0.9257974028587341], "min" : [-1.0000044107437134, -0.9958389401435852, -0.6744520664215088]}, {"bufferView" : 3, "byteOffset" : 24, "componentType" : 5126, "count" : 180, "type" : "VEC2", "max" : [0.875, -0], "min" : [0.125, -1]}, {"bufferView" : 0, "byteOffset" : 18840, "componentType" : 5123, "count" : 2976, "type" : "SCALAR", "max" : [827], "min" : [0]}, {"bufferView" : 4, "byteOffset" : 0, "componentType" : 5126, "count" : 828, "type" : "VEC3", "max" : [4.145175933837891, 58.42251205444336, 34.55843734741211], "min" : [-4.145175933837891, 53.556705474853516, 27.389142990112305]}, {"bufferView" : 4, "byteOffset" : 12, "componentType" : 5126, "count" : 828, "type" : "VEC3", "max" : [0.9992989301681519, 0.9999719858169556, 0.9836035370826721], "min" : [-0.9992989301681519, -0.9999663233757019, -0.9910023808479309]}, {"bufferView" : 4, "byteOffset" : 24, "componentType" : 5126, "count" : 828, "type" : "VEC2", "max" : [1, -0], "min" : [0, -1]}, {"bufferView" : 0, "byteOffset" : 24792, "componentType" : 5123, "count" : 2640, "type" : "SCALAR", "max" : [1229], "min" : [0]}, {"bufferView" : 5, "byteOffset" : 0, "componentType" : 5126, "count" : 1230, "type" : "VEC3", "max" : [3.628253936767578, 57.16203308105469, 33.7886962890625], "min" : [-3.6282548904418945, 52.864723205566406, 27.242633819580078]}, {"bufferView" : 5, "byteOffset" : 12, "componentType" : 5126, "count" : 1230, "type" : "VEC3", "max" : [1.0000044107437134, 0.9766433238983154, 0.9925894737243652], "min" : [-1.0000044107437134, -0.999826192855835, -0.999684751033783]}, {"bufferView" : 5, "byteOffset" : 24, "componentType" : 5126, "count" : 1230, "type" : "VEC2", "max" : [1, -0], "min" : [0, -1]}, {"bufferView" : 0, "byteOffset" : 30072, "componentType" : 5123, "count" : 5082, "type" : "SCALAR", "max" : [1583], "min" : [0]}, {"bufferView" : 6, "byteOffset" : 0, "componentType" : 5126, "count" : 1584, "type" : "VEC3", "max" : [53.37583541870117, 46.58563232421875, 4.0927019119262695], "min" : [-53.37583541870117, 44.56964874267578, -23.390026092529297]}, {"bufferView" : 6, "byteOffset" : 12, "componentType" : 5126, "count" : 1584, "type" : "VEC3", "max" : [0.9997039437294006, 1.0000044107437134, 1.0000016689300537], "min" : [-0.9349271655082703, -1.0000044107437134, -1.0000016689300537]}, {"bufferView" : 6, "byteOffset" : 24, "componentType" : 5126, "count" : 1584, "type" : "VEC2", "max" : [0.9034479856491089, -0.010499999858438969], "min" : [0.024675000458955765, -0.9900519847869873]}, {"bufferView" : 0, "byteOffset" : 40236, "componentType" : 5123, "count" : 252, "type" : "SCALAR", "max" : [107], "min" : [0]}, {"bufferView" : 7, "byteOffset" : 0, "componentType" : 5126, "count" : 108, "type" : "VEC3", "max" : [17.58262062072754, 69.74812316894531, 24.87750816345215], "min" : [-17.582618713378906, 57.96019744873047, 16.85519790649414]}, {"bufferView" : 7, "byteOffset" : 12, "componentType" : 5126, "count" : 108, "type" : "VEC3", "max" : [0.933785617351532, 0.8204570412635803, 0.8538987040519714], "min" : [-0.9337866902351379, -0.5977626442909241, 0.33964234590530396]}, {"bufferView" : 7, "byteOffset" : 24, "componentType" : 5126, "count" : 108, "type" : "VEC2", "max" : [0.5, -0], "min" : [0, -1]}, {"bufferView" : 0, "byteOffset" : 40740, "componentType" : 5123, "count" : 3720, "type" : "SCALAR", "max" : [681], "min" : [0]}, {"bufferView" : 8, "byteOffset" : 0, "componentType" : 5126, "count" : 682, "type" : "VEC3", "max" : [13.51781940460205, 78.55039978027344, 32.3638916015625], "min" : [-13.532322883605957, 55.020263671875, 16.03077507019043]}, {"bufferView" : 8, "byteOffset" : 12, "componentType" : 5126, "count" : 682, "type" : "VEC3", "max" : [0.9991714954376221, 0.9973571300506592, 0.9993379712104797], "min" : [-0.9994434714317322, -0.9932994246482849, -0.996845006942749]}, {"bufferView" : 8, "byteOffset" : 24, "componentType" : 5126, "count" : 682, "type" : "VEC2", "max" : [0.9895359873771667, -0.010222000069916248], "min" : [0.0092569999396801, -0.9817230105400085]}, {"bufferView" : 0, "byteOffset" : 48180, "componentType" : 5123, "count" : 480, "type" : "SCALAR", "max" : [119], "min" : [0]}, {"bufferView" : 9, "byteOffset" : 0, "componentType" : 5126, "count" : 120, "type" : "VEC3", "max" : [10.27182674407959, 72.57731628417969, 32.3638916015625], "min" : [-10.45578384399414, 59.27385330200195, 27.734119415283203]}, {"bufferView" : 9, "byteOffset" : 12, "componentType" : 5126, "count" : 120, "type" : "VEC3", "max" : [0.7648451328277588, 0.20057199895381927, 0.9993379712104797], "min" : [-0.775845468044281, -0.4922840893268585, 0.6287338137626648]}, {"bufferView" : 9, "byteOffset" : 24, "componentType" : 5126, "count" : 120, "type" : "VEC2", "max" : [0.8138149976730347, -0.5911790132522583], "min" : [0.5989909768104553, -0.8060029745101929]}, {"bufferView" : 0, "byteOffset" : 49140, "componentType" : 5123, "count" : 360, "type" : "SCALAR", "max" : [81], "min" : [0]}, {"bufferView" : 10, "byteOffset" : 0, "componentType" : 5126, "count" : 82, "type" : "VEC3", "max" : [9.519848823547363, 70.8597412109375, 32.25874328613281], "min" : [-9.723748207092285, 60.41636657714844, 28.539979934692383]}, {"bufferView" : 10, "byteOffset" : 12, "componentType" : 5126, "count" : 82, "type" : "VEC3", "max" : [0.6925710439682007, 0.06486226618289948, 0.9759714603424072], "min" : [-0.7041223645210266, -0.34749752283096313, 0.7065773606300354]}, {"bufferView" : 10, "byteOffset" : 24, "componentType" : 5126, "count" : 82, "type" : "VEC2", "max" : [0.7651870250701904, -0.6398419737815857], "min" : [0.6476190090179443, -0.7573450207710266]}, {"bufferView" : 0, "byteOffset" : 49860, "componentType" : 5123, "count" : 480, "type" : "SCALAR", "max" : [103], "min" : [0]}, {"bufferView" : 11, "byteOffset" : 0, "componentType" : 5126, "count" : 104, "type" : "VEC3", "max" : [9.102202415466309, 71.74254608154297, 32.25084686279297], "min" : [-8.185145378112793, 63.64799880981445, 29.399160385131836]}, {"bufferView" : 11, "byteOffset" : 12, "componentType" : 5126, "count" : 104, "type" : "VEC3", "max" : [0.6726358532905579, 0.09047838300466537, 0.9560418128967285], "min" : [-0.6282457709312439, -0.17801277339458466, 0.7391191124916077]}, {"bufferView" : 11, "byteOffset" : 24, "componentType" : 5126, "count" : 104, "type" : "VEC2", "max" : [0.7859079837799072, -0.614998996257782], "min" : [0.6268979907035828, -0.7821810245513916]}, {"bufferView" : 0, "byteOffset" : 50820, "componentType" : 5123, "count" : 7311, "type" : "SCALAR", "max" : [1522], "min" : [0]}, {"bufferView" : 12, "byteOffset" : 0, "componentType" : 5126, "count" : 1523, "type" : "VEC3", "max" : [17.728046417236328, 92.74117279052734, 46.844207763671875], "min" : [-24.79355239868164, -0.07635299861431122, -67.15959167480469]}, {"bufferView" : 12, "byteOffset" : 12, "componentType" : 5126, "count" : 1523, "type" : "VEC3", "max" : [0.9955252408981323, 0.9994494318962097, 0.9957399368286133], "min" : [-0.9994362592697144, -0.9994729161262512, -0.9997598528862]}, {"bufferView" : 12, "byteOffset" : 24, "componentType" : 5126, "count" : 1523, "type" : "VEC2", "max" : [0.994234025478363, -0.022128000855445862], "min" : [0.012947999872267246, -0.9916269779205322]}], "asset" : {"generator" : "Aspose.3D 21.1", "version" : "2.0"}, "buffers" : [{"uri" : "buffer.bin", "byteLength" : 1112568}], "bufferViews" : [{"buffer" : 0, "byteOffset" : 0, "byteLength" : 65444, "target" : 34963}, {"buffer" : 0, "byteOffset" : 65448, "byteLength" : 261888, "byteStride" : 32, "target" : 34962}, {"buffer" : 0, "byteOffset" : 327340, "byteLength" : 17280, "byteStride" : 32, "target" : 34962}, {"buffer" : 0, "byteOffset" : 344624, "byteLength" : 22272, "byteStride" : 32, "target" : 34962}, {"buffer" : 0, "byteOffset" : 366900, "byteLength" : 95232, "byteStride" : 32, "target" : 34962}, {"buffer" : 0, "byteOffset" : 462136, "byteLength" : 84480, "byteStride" : 32, "target" : 34962}, {"buffer" : 0, "byteOffset" : 546620, "byteLength" : 162624, "byteStride" : 32, "target" : 34962}, {"buffer" : 0, "byteOffset" : 709248, "byteLength" : 8064, "byteStride" : 32, "target" : 34962}, {"buffer" : 0, "byteOffset" : 717316, "byteLength" : 119040, "byteStride" : 32, "target" : 34962}, {"buffer" : 0, "byteOffset" : 836360, "byteLength" : 15360, "byteStride" : 32, "target" : 34962}, {"buffer" : 0, "byteOffset" : 851724, "byteLength" : 11520, "byteStride" : 32, "target" : 34962}, {"buffer" : 0, "byteOffset" : 863248, "byteLength" : 15360, "byteStride" : 32, "target" : 34962}, {"buffer" : 0, "byteOffset" : 878612, "byteLength" : 233952, "byteStride" : 32, "target" : 34962}], "materials" : [{"pbrMetallicRoughness" : {"baseColorFactor" : [0.5, 0.5, 0.5, 1], "metallicFactor" : 0, "roughnessFactor" : 1}, "emissiveFactor" : [0, 0, 0], "alphaMode" : "OPAQUE", "doubleSided" : false}, {"pbrMetallicRoughness" : {"baseColorFactor" : [0.5, 0.5, 0.5, 1], "metallicFactor" : 0, "roughnessFactor" : 1}, "emissiveFactor" : [0, 0, 0], "alphaMode" : "OPAQUE", "doubleSided" : false}, {"pbrMetallicRoughness" : {"baseColorFactor" : [0.5, 0.5, 0.5, 1], "metallicFactor" : 0, "roughnessFactor" : 1}, "emissiveFactor" : [0, 0, 0], "alphaMode" : "OPAQUE", "doubleSided" : false}, {"pbrMetallicRoughness" : {"baseColorFactor" : [0.5, 0.5, 0.5, 1], "metallicFactor" : 0, "roughnessFactor" : 1}, "emissiveFactor" : [0, 0, 0], "alphaMode" : "OPAQUE", "doubleSided" : false}, {"pbrMetallicRoughness" : {"baseColorFactor" : [0.5, 0.5, 0.5, 1], "metallicFactor" : 0, "roughnessFactor" : 1}, "emissiveFactor" : [0, 0, 0], "alphaMode" : "OPAQUE", "doubleSided" : false}, {"pbrMetallicRoughness" : {"baseColorFactor" : [0.5, 0.5, 0.5, 1], "metallicFactor" : 0, "roughnessFactor" : 1}, "emissiveFactor" : [0, 0, 0], "alphaMode" : "OPAQUE", "doubleSided" : false}, {"pbrMetallicRoughness" : {"baseColorFactor" : [0.5, 0.5, 0.5, 1], "metallicFactor" : 0, "roughnessFactor" : 1}, "emissiveFactor" : [0, 0, 0], "alphaMode" : "OPAQUE", "doubleSided" : false}, {"pbrMetallicRoughness" : {"baseColorFactor" : [0.5, 0.5, 0.5, 1], "metallicFactor" : 0, "roughnessFactor" : 1}, "emissiveFactor" : [0, 0, 0], "alphaMode" : "OPAQUE", "doubleSided" : false}, {"pbrMetallicRoughness" : {"baseColorFactor" : [0.5, 0.5, 0.5, 1], "metallicFactor" : 0, "roughnessFactor" : 1}, "emissiveFactor" : [0, 0, 0], "alphaMode" : "OPAQUE", "doubleSided" : false}, {"pbrMetallicRoughness" : {"baseColorFactor" : [0.5, 0.5, 0.5, 1], "metallicFactor" : 0, "roughnessFactor" : 1}, "emissiveFactor" : [0, 0, 0], "alphaMode" : "OPAQUE", "doubleSided" : false}, {"pbrMetallicRoughness" : {"baseColorFactor" : [0.5, 0.5, 0.5, 1], "metallicFactor" : 0, "roughnessFactor" : 1}, "emissiveFactor" : [0, 0, 0], "alphaMode" : "OPAQUE", "doubleSided" : false}, {"pbrMetallicRoughness" : {"baseColorFactor" : [0.5, 0.5, 0.5, 1], "metallicFactor" : 0, "roughnessFactor" : 1}, "emissiveFactor" : [0, 0, 0], "alphaMode" : "OPAQUE", "doubleSided" : false}], "meshes" : [{"primitives" : [{"attributes" : {"POSITION" : 1, "NORMAL" : 2, "TEXCOORD_0" : 3}, "indices" : 0, "material" : 0, "mode" : 4}, {"attributes" : {"POSITION" : 5, "NORMAL" : 6, "TEXCOORD_0" : 7}, "indices" : 4, "material" : 1, "mode" : 4}, {"attributes" : {"POSITION" : 9, "NORMAL" : 10, "TEXCOORD_0" : 11}, "indices" : 8, "material" : 2, "mode" : 4}, {"attributes" : {"POSITION" : 13, "NORMAL" : 14, "TEXCOORD_0" : 15}, "indices" : 12, "material" : 3, "mode" : 4}, {"attributes" : {"POSITION" : 17, "NORMAL" : 18, "TEXCOORD_0" : 19}, "indices" : 16, "material" : 4, "mode" : 4}, {"attributes" : {"POSITION" : 21, "NORMAL" : 22, "TEXCOORD_0" : 23}, "indices" : 20, "material" : 5, "mode" : 4}, {"attributes" : {"POSITION" : 25, "NORMAL" : 26, "TEXCOORD_0" : 27}, "indices" : 24, "material" : 6, "mode" : 4}, {"attributes" : {"POSITION" : 29, "NORMAL" : 30, "TEXCOORD_0" : 31}, "indices" : 28, "material" : 7, "mode" : 4}, {"attributes" : {"POSITION" : 33, "NORMAL" : 34, "TEXCOORD_0" : 35}, "indices" : 32, "material" : 8, "mode" : 4}, {"attributes" : {"POSITION" : 37, "NORMAL" : 38, "TEXCOORD_0" : 39}, "indices" : 36, "material" : 9, "mode" : 4}, {"attributes" : {"POSITION" : 41, "NORMAL" : 42, "TEXCOORD_0" : 43}, "indices" : 40, "material" : 10, "mode" : 4}, {"attributes" : {"POSITION" : 45, "NORMAL" : 46, "TEXCOORD_0" : 47}, "indices" : 44, "material" : 11, "mode" : 4}]}], "nodes" : [{"mesh" : 0, "name" : "Node"}], "scene" : 0, "scenes" : [{"nodes" : [0]}]}